<mxfile host="app.diagrams.net" modified="2023-05-05T14:47:19.531Z" agent="Mozilla/5.0 (Windows NT 10.0; Win64; x64) AppleWebKit/537.36 (KHTML, like Gecko) Chrome/112.0.0.0 Safari/537.36" etag="0mOuPIpnAMAIcdANFO6-" version="21.2.9" type="github">
  <diagram name="第 1 页" id="yTQUxa3YWbj74dRGjzxy">
    <mxGraphModel dx="1377" dy="728" grid="1" gridSize="10" guides="1" tooltips="1" connect="1" arrows="1" fold="1" page="1" pageScale="1" pageWidth="827" pageHeight="1169" math="0" shadow="0">
      <root>
        <mxCell id="0" />
        <mxCell id="1" parent="0" />
        <mxCell id="SL3sMLoJ2WhoeXAaMqSx-4" style="edgeStyle=orthogonalEdgeStyle;rounded=0;orthogonalLoop=1;jettySize=auto;html=1;" edge="1" parent="1" source="J-JaCzHggq6NPp5Wxy95-1" target="J-JaCzHggq6NPp5Wxy95-2">
          <mxGeometry relative="1" as="geometry">
            <Array as="points">
              <mxPoint x="380" y="240" />
              <mxPoint x="180" y="240" />
            </Array>
          </mxGeometry>
        </mxCell>
        <mxCell id="SL3sMLoJ2WhoeXAaMqSx-5" style="edgeStyle=orthogonalEdgeStyle;rounded=0;orthogonalLoop=1;jettySize=auto;html=1;" edge="1" parent="1" source="J-JaCzHggq6NPp5Wxy95-1" target="J-JaCzHggq6NPp5Wxy95-3">
          <mxGeometry relative="1" as="geometry">
            <Array as="points">
              <mxPoint x="380" y="240" />
              <mxPoint x="580" y="240" />
            </Array>
          </mxGeometry>
        </mxCell>
        <mxCell id="J-JaCzHggq6NPp5Wxy95-1" value="查阅文献，学习本课题所需的各种理论知识" style="rounded=1;whiteSpace=wrap;html=1;fontSize=20;" parent="1" vertex="1">
          <mxGeometry x="260" y="120" width="240" height="80" as="geometry" />
        </mxCell>
        <mxCell id="SL3sMLoJ2WhoeXAaMqSx-6" style="edgeStyle=orthogonalEdgeStyle;rounded=0;orthogonalLoop=1;jettySize=auto;html=1;" edge="1" parent="1" source="J-JaCzHggq6NPp5Wxy95-2" target="J-JaCzHggq6NPp5Wxy95-4">
          <mxGeometry relative="1" as="geometry">
            <Array as="points">
              <mxPoint x="180" y="370" />
              <mxPoint x="60" y="370" />
            </Array>
          </mxGeometry>
        </mxCell>
        <mxCell id="SL3sMLoJ2WhoeXAaMqSx-7" style="edgeStyle=orthogonalEdgeStyle;rounded=0;orthogonalLoop=1;jettySize=auto;html=1;" edge="1" parent="1" source="J-JaCzHggq6NPp5Wxy95-2" target="SL3sMLoJ2WhoeXAaMqSx-2">
          <mxGeometry relative="1" as="geometry" />
        </mxCell>
        <mxCell id="SL3sMLoJ2WhoeXAaMqSx-8" style="edgeStyle=orthogonalEdgeStyle;rounded=0;orthogonalLoop=1;jettySize=auto;html=1;" edge="1" parent="1" source="J-JaCzHggq6NPp5Wxy95-2" target="J-JaCzHggq6NPp5Wxy95-6">
          <mxGeometry relative="1" as="geometry" />
        </mxCell>
        <mxCell id="SL3sMLoJ2WhoeXAaMqSx-9" style="edgeStyle=orthogonalEdgeStyle;rounded=0;orthogonalLoop=1;jettySize=auto;html=1;" edge="1" parent="1" source="J-JaCzHggq6NPp5Wxy95-2" target="J-JaCzHggq6NPp5Wxy95-5">
          <mxGeometry relative="1" as="geometry">
            <Array as="points">
              <mxPoint x="180" y="370" />
              <mxPoint x="300" y="370" />
            </Array>
          </mxGeometry>
        </mxCell>
        <mxCell id="J-JaCzHggq6NPp5Wxy95-2" value="硬件部分" style="rounded=1;whiteSpace=wrap;html=1;fontSize=20;" parent="1" vertex="1">
          <mxGeometry x="120" y="280" width="120" height="60" as="geometry" />
        </mxCell>
        <mxCell id="SL3sMLoJ2WhoeXAaMqSx-10" style="edgeStyle=orthogonalEdgeStyle;rounded=0;orthogonalLoop=1;jettySize=auto;html=1;" edge="1" parent="1" source="J-JaCzHggq6NPp5Wxy95-3" target="J-JaCzHggq6NPp5Wxy95-9">
          <mxGeometry relative="1" as="geometry" />
        </mxCell>
        <mxCell id="SL3sMLoJ2WhoeXAaMqSx-11" style="edgeStyle=orthogonalEdgeStyle;rounded=0;orthogonalLoop=1;jettySize=auto;html=1;entryX=0.5;entryY=0;entryDx=0;entryDy=0;" edge="1" parent="1" source="J-JaCzHggq6NPp5Wxy95-3" target="SL3sMLoJ2WhoeXAaMqSx-1">
          <mxGeometry relative="1" as="geometry" />
        </mxCell>
        <mxCell id="SL3sMLoJ2WhoeXAaMqSx-12" style="edgeStyle=orthogonalEdgeStyle;rounded=0;orthogonalLoop=1;jettySize=auto;html=1;" edge="1" parent="1" source="J-JaCzHggq6NPp5Wxy95-3" target="J-JaCzHggq6NPp5Wxy95-7">
          <mxGeometry relative="1" as="geometry">
            <Array as="points">
              <mxPoint x="580" y="370" />
              <mxPoint x="460" y="370" />
            </Array>
          </mxGeometry>
        </mxCell>
        <mxCell id="SL3sMLoJ2WhoeXAaMqSx-13" style="edgeStyle=orthogonalEdgeStyle;rounded=0;orthogonalLoop=1;jettySize=auto;html=1;entryX=0.5;entryY=0;entryDx=0;entryDy=0;" edge="1" parent="1" source="J-JaCzHggq6NPp5Wxy95-3" target="J-JaCzHggq6NPp5Wxy95-8">
          <mxGeometry relative="1" as="geometry">
            <Array as="points">
              <mxPoint x="580" y="370" />
              <mxPoint x="700" y="370" />
            </Array>
          </mxGeometry>
        </mxCell>
        <mxCell id="J-JaCzHggq6NPp5Wxy95-3" value="软件部分" style="rounded=1;whiteSpace=wrap;html=1;fontSize=20;" parent="1" vertex="1">
          <mxGeometry x="520" y="280" width="120" height="60" as="geometry" />
        </mxCell>
        <mxCell id="SL3sMLoJ2WhoeXAaMqSx-14" style="edgeStyle=orthogonalEdgeStyle;rounded=0;orthogonalLoop=1;jettySize=auto;html=1;entryX=0.5;entryY=0;entryDx=0;entryDy=0;" edge="1" parent="1" source="J-JaCzHggq6NPp5Wxy95-4" target="J-JaCzHggq6NPp5Wxy95-10">
          <mxGeometry relative="1" as="geometry">
            <Array as="points">
              <mxPoint x="60" y="600" />
              <mxPoint x="180" y="600" />
            </Array>
          </mxGeometry>
        </mxCell>
        <mxCell id="J-JaCzHggq6NPp5Wxy95-4" value="驱动系统" style="rounded=1;whiteSpace=wrap;html=1;fontSize=20;verticalAlign=middle;horizontal=1;labelPosition=center;verticalLabelPosition=middle;align=center;" parent="1" vertex="1">
          <mxGeometry x="40" y="400" width="40" height="160" as="geometry" />
        </mxCell>
        <mxCell id="SL3sMLoJ2WhoeXAaMqSx-18" style="edgeStyle=orthogonalEdgeStyle;rounded=0;orthogonalLoop=1;jettySize=auto;html=1;entryX=0.5;entryY=0;entryDx=0;entryDy=0;" edge="1" parent="1" source="J-JaCzHggq6NPp5Wxy95-5" target="J-JaCzHggq6NPp5Wxy95-10">
          <mxGeometry relative="1" as="geometry">
            <Array as="points">
              <mxPoint x="300" y="600" />
              <mxPoint x="180" y="600" />
            </Array>
          </mxGeometry>
        </mxCell>
        <mxCell id="J-JaCzHggq6NPp5Wxy95-5" value="鱼体设计" style="rounded=1;whiteSpace=wrap;html=1;fontSize=20;verticalAlign=middle;horizontal=1;labelPosition=center;verticalLabelPosition=middle;align=center;" parent="1" vertex="1">
          <mxGeometry x="280" y="400" width="40" height="160" as="geometry" />
        </mxCell>
        <mxCell id="SL3sMLoJ2WhoeXAaMqSx-17" style="edgeStyle=orthogonalEdgeStyle;rounded=0;orthogonalLoop=1;jettySize=auto;html=1;" edge="1" parent="1" source="J-JaCzHggq6NPp5Wxy95-6" target="J-JaCzHggq6NPp5Wxy95-10">
          <mxGeometry relative="1" as="geometry" />
        </mxCell>
        <mxCell id="J-JaCzHggq6NPp5Wxy95-6" value="通讯模块" style="rounded=1;whiteSpace=wrap;html=1;fontSize=20;verticalAlign=middle;horizontal=1;labelPosition=center;verticalLabelPosition=middle;align=center;" parent="1" vertex="1">
          <mxGeometry x="200" y="400" width="40" height="160" as="geometry" />
        </mxCell>
        <mxCell id="SL3sMLoJ2WhoeXAaMqSx-26" style="edgeStyle=orthogonalEdgeStyle;rounded=0;orthogonalLoop=1;jettySize=auto;html=1;" edge="1" parent="1" source="J-JaCzHggq6NPp5Wxy95-7" target="SL3sMLoJ2WhoeXAaMqSx-20">
          <mxGeometry relative="1" as="geometry">
            <Array as="points">
              <mxPoint x="460" y="600" />
              <mxPoint x="580" y="600" />
            </Array>
          </mxGeometry>
        </mxCell>
        <mxCell id="J-JaCzHggq6NPp5Wxy95-7" value="群体感知" style="rounded=1;whiteSpace=wrap;html=1;fontSize=20;verticalAlign=middle;horizontal=1;labelPosition=center;verticalLabelPosition=middle;align=center;" parent="1" vertex="1">
          <mxGeometry x="440" y="400" width="40" height="160" as="geometry" />
        </mxCell>
        <mxCell id="SL3sMLoJ2WhoeXAaMqSx-24" style="edgeStyle=orthogonalEdgeStyle;rounded=0;orthogonalLoop=1;jettySize=auto;html=1;entryX=0.5;entryY=0;entryDx=0;entryDy=0;" edge="1" parent="1" source="J-JaCzHggq6NPp5Wxy95-8" target="SL3sMLoJ2WhoeXAaMqSx-20">
          <mxGeometry relative="1" as="geometry">
            <Array as="points">
              <mxPoint x="700" y="600" />
              <mxPoint x="580" y="600" />
            </Array>
          </mxGeometry>
        </mxCell>
        <mxCell id="J-JaCzHggq6NPp5Wxy95-8" value="集群控制" style="rounded=1;whiteSpace=wrap;html=1;fontSize=20;verticalAlign=middle;horizontal=1;labelPosition=center;verticalLabelPosition=middle;align=center;" parent="1" vertex="1">
          <mxGeometry x="680" y="400" width="40" height="160" as="geometry" />
        </mxCell>
        <mxCell id="SL3sMLoJ2WhoeXAaMqSx-25" style="edgeStyle=orthogonalEdgeStyle;rounded=0;orthogonalLoop=1;jettySize=auto;html=1;" edge="1" parent="1" source="J-JaCzHggq6NPp5Wxy95-9" target="SL3sMLoJ2WhoeXAaMqSx-20">
          <mxGeometry relative="1" as="geometry" />
        </mxCell>
        <mxCell id="J-JaCzHggq6NPp5Wxy95-9" value="个体控制" style="rounded=1;whiteSpace=wrap;html=1;fontSize=20;verticalAlign=middle;horizontal=1;labelPosition=center;verticalLabelPosition=middle;align=center;" parent="1" vertex="1">
          <mxGeometry x="520" y="400" width="40" height="160" as="geometry" />
        </mxCell>
        <mxCell id="SL3sMLoJ2WhoeXAaMqSx-19" style="edgeStyle=orthogonalEdgeStyle;rounded=0;orthogonalLoop=1;jettySize=auto;html=1;" edge="1" parent="1" source="J-JaCzHggq6NPp5Wxy95-10" target="J-JaCzHggq6NPp5Wxy95-11">
          <mxGeometry relative="1" as="geometry">
            <Array as="points">
              <mxPoint x="180" y="730" />
              <mxPoint x="380" y="730" />
            </Array>
          </mxGeometry>
        </mxCell>
        <mxCell id="J-JaCzHggq6NPp5Wxy95-10" value="制作并组装&lt;br&gt;机器鱼" style="rounded=1;whiteSpace=wrap;html=1;fontSize=20;" parent="1" vertex="1">
          <mxGeometry x="120" y="640" width="120" height="60" as="geometry" />
        </mxCell>
        <mxCell id="J-JaCzHggq6NPp5Wxy95-11" value="机器鱼平台实验" style="rounded=1;whiteSpace=wrap;html=1;fontSize=20;" parent="1" vertex="1">
          <mxGeometry x="260" y="760" width="240" height="80" as="geometry" />
        </mxCell>
        <mxCell id="SL3sMLoJ2WhoeXAaMqSx-23" style="edgeStyle=orthogonalEdgeStyle;rounded=0;orthogonalLoop=1;jettySize=auto;html=1;entryX=0.5;entryY=0;entryDx=0;entryDy=0;" edge="1" parent="1" source="SL3sMLoJ2WhoeXAaMqSx-1" target="SL3sMLoJ2WhoeXAaMqSx-20">
          <mxGeometry relative="1" as="geometry" />
        </mxCell>
        <mxCell id="SL3sMLoJ2WhoeXAaMqSx-1" value="步态优化" style="rounded=1;whiteSpace=wrap;html=1;fontSize=20;verticalAlign=middle;horizontal=1;labelPosition=center;verticalLabelPosition=middle;align=center;" vertex="1" parent="1">
          <mxGeometry x="600" y="400" width="40" height="160" as="geometry" />
        </mxCell>
        <mxCell id="SL3sMLoJ2WhoeXAaMqSx-16" style="edgeStyle=orthogonalEdgeStyle;rounded=0;orthogonalLoop=1;jettySize=auto;html=1;" edge="1" parent="1" source="SL3sMLoJ2WhoeXAaMqSx-2" target="J-JaCzHggq6NPp5Wxy95-10">
          <mxGeometry relative="1" as="geometry" />
        </mxCell>
        <mxCell id="SL3sMLoJ2WhoeXAaMqSx-2" value="姿态感知" style="rounded=1;whiteSpace=wrap;html=1;fontSize=20;verticalAlign=middle;horizontal=1;labelPosition=center;verticalLabelPosition=middle;align=center;" vertex="1" parent="1">
          <mxGeometry x="120" y="400" width="40" height="160" as="geometry" />
        </mxCell>
        <mxCell id="SL3sMLoJ2WhoeXAaMqSx-27" style="edgeStyle=orthogonalEdgeStyle;rounded=0;orthogonalLoop=1;jettySize=auto;html=1;entryX=0.5;entryY=0;entryDx=0;entryDy=0;" edge="1" parent="1" source="SL3sMLoJ2WhoeXAaMqSx-20" target="J-JaCzHggq6NPp5Wxy95-11">
          <mxGeometry relative="1" as="geometry">
            <Array as="points">
              <mxPoint x="580" y="730" />
              <mxPoint x="380" y="730" />
            </Array>
          </mxGeometry>
        </mxCell>
        <mxCell id="SL3sMLoJ2WhoeXAaMqSx-20" value="模拟仿真" style="rounded=1;whiteSpace=wrap;html=1;fontSize=20;" vertex="1" parent="1">
          <mxGeometry x="520" y="640" width="120" height="60" as="geometry" />
        </mxCell>
      </root>
    </mxGraphModel>
  </diagram>
</mxfile>
